/vscmnt/brussel_pixiu_data/_data_brussel/112/vsc11236/PredSimResults/SUBJ06mtu3D/worker8.mot
version=1
nRows=8
nColumns=50
inDegrees=yes
endheader
                time	         pelvis_tilt	         pelvis_list	     pelvis_rotation	           pelvis_tx	           pelvis_ty	           pelvis_tz	       hip_flexion_r	     hip_adduction_r	      hip_rotation_r	        knee_angle_r	       ankle_angle_r	         mtp_angle_r	       hip_flexion_l	     hip_adduction_l	      hip_rotation_l	        knee_angle_l	       ankle_angle_l	         mtp_angle_l	    lumbar_extension	      lumbar_bending	     lumbar_rotation	 ercspn_r/activation	 intobl_r/activation	 extobl_r/activation	    abd_r/activation	    add_r/activation	hamstrings_r/activation	bifemsh_r/activation	glut_max_r/activation	iliopsoas_r/activation	rect_fem_r/activation	  vasti_r/activation	gastroc_r/activation	 soleus_r/activation	tib_ant_r/activation	 ercspn_l/activation	 intobl_l/activation	 extobl_l/activation	    abd_l/activation	    add_l/activation	hamstrings_l/activation	bifemsh_l/activation	glut_max_l/activation	iliopsoas_l/activation	rect_fem_l/activation	  vasti_l/activation	gastroc_l/activation	 soleus_l/activation	tib_ant_l/activation	
          1.87213318	         -7.57034062	          0.91908115	         -3.21744667	          2.09678916	          0.93169653	          0.01108449	         -9.78410298	         -0.58291267	         -4.52827904	         -8.78731195	          6.13491232	         34.39726180	         31.57655339	         -0.81447083	         -3.08307441	         -4.02550132	          1.72856179	          0.22473438	         -4.49373224	          0.05635540	          4.84327613	          0.07616220	          0.01000000	          0.01000000	          0.07994557	          0.01000008	          0.01000041	          0.14660387	          0.04266324	          0.49495494	          0.03107643	          0.01000002	          0.36234340	          0.30226977	          0.02129554	          0.17717475	          0.12399772	          0.01000002	          0.01000000	          0.21567352	          0.15708373	          0.23914916	          0.02631035	          0.15741574	          0.01000003	          0.01000000	          0.02572539	          0.01000000	          0.39879393	
          1.88461406	         -7.67738292	          0.80723677	         -3.27748098	          2.11360083	          0.92977002	          0.00993175	        -10.12133048	         -0.62434898	         -4.94012825	         -9.78779555	          5.24122754	         36.19757745	         31.84222456	         -0.72978098	         -3.26423873	         -5.83708773	          1.34384033	          0.23045281	         -4.14450215	         -0.14695331	          5.32324733	          0.12116697	          0.01000000	          0.01000000	          0.06617930	          0.01000025	          0.01000015	          0.12135934	          0.03679009	          0.50767362	          0.02572523	          0.02469639	          0.33419362	          0.28842016	          0.01762854	          0.15724378	          0.10264587	          0.01000001	          0.00999999	          0.32162455	          0.14550971	          0.19796876	          0.08253574	          0.13030945	          0.01000008	          0.01000000	          0.02129560	          0.01459299	          0.41561722	
          1.89709495	         -7.76262926	          0.73537334	         -3.31848380	          2.13088735	          0.92803086	          0.00872741	        -10.31636257	         -0.73693403	         -5.34745277	        -11.11730796	          4.23456818	         38.03582984	         31.84969444	         -0.70294416	         -3.26590918	         -7.57384121	          0.99267143	          0.19604295	         -3.76386435	         -0.40280877	          5.77125757	          0.10590495	          0.01000000	          0.01000001	          0.05478352	          0.01000020	          0.01007366	          0.10046181	          0.03045500	          0.50105685	          0.02129547	          0.02044401	          0.30464930	          0.26781619	          0.01459298	          0.13016713	          0.08497071	          0.01000001	          0.04309384	          0.26624224	          0.14053139	          0.16387943	          0.09720021	          0.10787074	          0.01000001	          0.01000000	          0.01762860	          0.01208015	          0.48792861	
          1.90957584	         -7.82856685	          0.68602796	         -3.33197226	          2.14836783	          0.92660978	          0.00739196	        -10.26361354	         -0.91397803	         -5.75765826	        -12.92803603	          3.09737351	         39.88593990	         31.67165311	         -0.66555383	         -3.32725358	         -9.01656031	          0.51730980	          0.18407457	         -3.38842742	         -0.67999037	          6.17730303	          0.11224934	          0.00999999	          0.01000000	          0.04535004	          0.01000007	          0.01479756	          0.08316274	          0.02521079	          0.48134477	          0.01762849	          0.01762851	          0.25231890	          0.24633114	          0.01208014	          0.14444197	          0.07033913	          0.01000001	          0.09058322	          0.26782666	          0.12682766	          0.13566014	          0.14312970	          0.08929588	          0.01000000	          0.01000000	          0.01459303	          0.01000000	          0.55650358	
          1.92205673	         -7.87381763	          0.65439520	         -3.32150798	          2.16580383	          0.92561581	          0.00594761	         -9.89013801	         -1.15876311	         -6.17605659	        -15.31634901	          1.80374669	         41.66245043	         31.42029654	         -0.60813115	         -3.44075218	        -10.35069410	          0.01778118	          0.15598105	         -3.04654076	         -0.97482240	          6.53666274	          0.14908800	          0.01000000	          0.01000000	          0.03754096	          0.01000029	          0.03039690	          0.06884250	          0.02086960	          0.44602642	          0.01459295	          0.01459297	          0.20887070	          0.20967608	          0.00999999	          0.14866816	          0.05822705	          0.01000001	          0.13980807	          0.29142613	          0.11816875	          0.11230007	          0.18632766	          0.07391952	          0.01000001	          0.02106856	          0.01208018	          0.01000001	          0.59093075	
          1.93453762	         -7.89781860	          0.65615501	         -3.29484940	          2.18301631	          0.92516302	          0.00442305	         -9.16044368	         -1.49553261	         -6.60314188	        -18.31075396	          0.34508197	         43.14866892	         31.15733207	         -0.51082527	         -3.54689784	        -11.72530569	         -0.19465664	          0.12095884	         -2.75247898	         -1.30413585	          6.85047678	          0.18392254	          0.01000000	          0.01000000	          0.03107658	          0.09463190	          0.04456101	          0.05698815	          0.01727595	          0.39340090	          0.01208012	          0.01208013	          0.17290409	          0.17357079	          0.01000000	          0.14068253	          0.04820061	          0.01000001	          0.17254255	          0.27283336	          0.10842090	          0.09296251	          0.20309621	          0.06119091	          0.01000000	          0.07624457	          0.01000003	          0.01000000	          0.61478071	
          1.94701850	         -7.90240029	          0.69628388	         -3.25673024	          2.19987085	          0.92537208	          0.00284944	         -8.07432823	         -1.93379859	         -7.05878147	        -21.87525636	         -1.23265851	         43.93611761	         30.85371024	         -0.35935109	         -3.59158143	        -13.08313264	         -0.03554255	          0.08928918	         -2.51413728	         -1.67122754	          7.12043906	          0.20504818	          0.01000000	          0.01000000	          0.02572533	          0.12931915	          0.03688849	          0.04717515	          0.01430111	          0.33074157	          0.01000002	          0.00999999	          0.14313077	          0.14368267	          0.00999999	          0.13752655	          0.03990068	          0.01000001	          0.19559093	          0.23843450	          0.09904968	          0.07695479	          0.19653382	          0.05065411	          0.01000000	          0.12440385	          0.01000000	          0.01000000	          0.57535456	
          1.95949939	         -7.89047188	          0.76213767	         -3.20901780	          2.21631208	          0.92630685	          0.00126691	         -6.66352949	         -2.46696618	         -7.55916182	        -25.93647558	         -2.84891263	         43.58997957	         30.44969585	         -0.16261781	         -3.56664709	        -14.31958137	          0.56777370	          0.09238317	         -2.33110270	         -2.06115846	          7.34583133	          0.22220632	          0.01000000	          0.01000000	          0.02129554	          0.13089222	          0.03053665	          0.05237443	          0.01183852	          0.27378934	          0.01000002	          0.00999999	          0.11848429	          0.11894115	          0.00999999	          0.12658763	          0.03302996	          0.01000001	          0.21462240	          0.19737717	          0.08959631	          0.06370353	          0.17001970	          0.04193169	          0.01000000	          0.17744507	          0.01000001	          0.01000000	          0.49425453	
